<svg xmlns="http://www.w3.org/2000/svg" viewBox="0 0 64 64" fill="none">
  <rect width="64" height="64" rx="16" fill="#06784d"/>
  <path d="M18 22.5C18 20.567 19.567 19 21.5 19H42.5C44.433 19 46 20.567 46 22.5V25H39.5C35.91 25 33 27.91 33 31.5C33 35.09 35.91 38 39.5 38H46V41.5C46 43.433 44.433 45 42.5 45H21.5C19.567 45 18 43.433 18 41.5V22.5Z" fill="white"/>
  <path d="M46 27H39.5C37.015 27 35 29.015 35 31.5C35 33.985 37.015 36 39.5 36H46V27Z" fill="#b7f0cf"/>
  <circle cx="39.5" cy="31.5" r="2.4" fill="#06784d"/>
</svg>
